<?xml version="1.0" encoding="utf-8"?>
<!-- Generator: Adobe Illustrator 19.0.1, SVG Export Plug-In . SVG Version: 6.00 Build 0)  -->
<svg version="1.1" id="Слой_1" xmlns="http://www.w3.org/2000/svg" xmlns:xlink="http://www.w3.org/1999/xlink" x="0px" y="0px"
	 width="30px" height="40px" viewBox="0 0 30 40" style="enable-background:new 0 0 30 40;" xml:space="preserve">
<g>
	<g>
		<linearGradient id="SVGID_1_" gradientUnits="userSpaceOnUse" x1="0" y1="20" x2="30" y2="20">
			<stop  offset="0" style="stop-color:#704FFD"/>
			<stop  offset="0.1428" style="stop-color:#695CFC"/>
			<stop  offset="0.4168" style="stop-color:#5E6FFA"/>
			<stop  offset="0.6992" style="stop-color:#577AF8"/>
			<stop  offset="1" style="stop-color:#557EF8"/>
		</linearGradient>
		<path style="fill:url(#SVGID_1_);" d="M29.855,16.758c-0.383-1.057-1.351-1.744-2.474-1.752c-0.362-0.002-0.724,0-1.137,0
			c0-0.177,0.002-0.328,0-0.478c-0.022-1.663,0.049-3.334-0.085-4.988c-0.372-4.58-4.24-8.656-8.798-9.379
			C17.042,0.109,16.724,0.053,16.406,0c-0.938,0-1.875,0-2.813,0c-0.42,0.074-0.842,0.137-1.259,0.223
			C7.763,1.161,4.237,5.024,3.833,9.653c-0.137,1.575-0.057,3.169-0.076,4.754c-0.002,0.18,0,0.361,0,0.6c-0.343,0-0.662,0-0.982,0
			c-1.362,0-2.292,0.681-2.7,1.974C0.061,17.028,0.026,17.067,0,17.109c0,6.927,0,13.854,0,20.781
			c0.218,0.63,0.512,1.219,1.085,1.595C1.402,39.694,1.766,39.831,2.109,40c8.594,0,17.188,0,25.781,0
			c0.432-0.244,0.94-0.413,1.274-0.753c0.363-0.369,0.564-0.897,0.836-1.356c0-6.927,0-13.854,0-20.781
			C29.951,16.992,29.898,16.877,29.855,16.758z M27.508,25.606c0-0.418,0-0.803,0-1.213c0.408,0,0.802,0,1.223,0
			c0,0.399,0,0.793,0,1.213C28.334,25.606,27.941,25.606,27.508,25.606z M28.726,26.9c0,0.378,0,0.773,0,1.214
			c-0.398,0-0.784,0-1.201,0c0-0.392,0-0.787,0-1.214C27.904,26.9,28.299,26.9,28.726,26.9z M28.731,31.882c0,0.408,0,0.802,0,1.224
			c-0.396,0-0.79,0-1.212,0c0-0.395,0-0.789,0-1.224C27.935,31.882,28.32,31.882,28.731,31.882z M28.739,18.374
			c0,0.817,0,1.515,0,2.236c-0.413,0-0.809,0-1.191,0C27.171,19.472,28.147,19.088,28.739,18.374z M5,10.276
			c0.055-4.315,3.382-8.199,7.647-8.865c2.059-0.321,4.139-0.369,6.129,0.374c3.574,1.334,5.694,3.925,6.124,7.713
			c0.204,1.796,0.035,3.635,0.035,5.496c-6.615,0-13.25,0-19.911,0c-0.01-0.106-0.029-0.205-0.029-0.304
			C4.994,13.218,4.981,11.747,5,10.276z M1.277,18.363c0.429,0.445,0.857,0.785,1.136,1.221c0.163,0.255,0.087,0.663,0.12,1.028
			c-0.45,0-0.836,0-1.257,0C1.277,19.91,1.277,19.202,1.277,18.363z M1.267,21.884c0.422,0,0.807,0,1.216,0c0,0.411,0,0.805,0,1.224
			c-0.403,0-0.797,0-1.216,0C1.267,22.706,1.267,22.311,1.267,21.884z M1.266,24.391c0.405,0,0.8,0,1.223,0c0,0.423,0,0.808,0,1.217
			c-0.412,0-0.806,0-1.223,0C1.266,25.203,1.266,24.809,1.266,24.391z M2.491,29.393c0,0.418,0,0.804,0,1.214
			c-0.41,0-0.804,0-1.224,0c0-0.4,0-0.794,0-1.214C1.668,29.393,2.062,29.393,2.491,29.393z M1.263,26.902c0.388,0,0.783,0,1.211,0
			c0,0.373,0,0.768,0,1.197c-0.384,0-0.787,0-1.211,0C1.263,27.707,1.263,27.321,1.263,26.902z M1.264,31.889
			c0.414,0,0.808,0,1.223,0c0,0.415,0,0.809,0,1.221c-0.414,0-0.808,0-1.223,0C1.264,32.695,1.264,32.301,1.264,31.889z
			 M1.28,34.399c0.376,0,0.771,0,1.193,0c0.117,0.597,0.047,1.102-0.475,1.492c-0.246,0.183-0.428,0.451-0.717,0.765
			C1.28,35.832,1.28,35.132,1.28,34.399z M27.438,38.757c-1.992-0.001-3.984,0-5.976,0c-6.275,0-12.55-0.001-18.825,0.002
			c-0.476,0-0.904-0.084-1.226-0.562c0.46-0.455,0.882-0.961,1.39-1.354c0.785-0.608,0.975-1.348,0.965-2.322
			c-0.051-4.973-0.025-9.946-0.016-14.919c0.001-0.333-0.075-0.581-0.329-0.817c-0.684-0.637-1.339-1.304-2.013-1.968
			c0.293-0.454,0.683-0.571,1.133-0.571c2.304,0,4.609-0.001,6.913-0.001c5.989,0,11.977,0.002,17.966,0
			c0.462,0,0.868,0.102,1.158,0.549c-0.693,0.693-1.365,1.379-2.055,2.048c-0.192,0.186-0.272,0.373-0.271,0.644
			c0.008,5.325,0.009,10.649-0.001,15.974c-0.001,0.315,0.093,0.529,0.318,0.743c0.678,0.644,1.334,1.312,2.012,1.983
			C28.305,38.652,27.899,38.757,27.438,38.757z M28.733,36.523c-0.027,0.02-0.055,0.039-0.082,0.059
			c-0.363-0.383-0.788-0.726-1.064-1.164c-0.162-0.257-0.086-0.665-0.12-1.03c0.479,0,0.865,0,1.266,0
			C28.733,35.113,28.733,35.818,28.733,36.523z M28.736,30.612c-0.406,0-0.791,0-1.21,0c0-0.396,0-0.8,0-1.223
			c0.402,0,0.797,0,1.21,0C28.736,29.803,28.736,30.197,28.736,30.612z M28.741,23.108c-0.411,0-0.805,0-1.224,0
			c0-0.402,0-0.797,0-1.216c0.402,0,0.797,0,1.224,0C28.741,22.313,28.741,22.698,28.741,23.108z M12.539,24.17
			c-0.924,0.923-1.824,1.821-2.702,2.699c1.717,1.715,3.452,3.45,5.164,5.16c2.752-2.752,5.528-5.528,8.283-8.283
			c-0.875-0.877-1.773-1.776-2.754-2.759c-1.851,1.852-3.706,3.708-5.602,5.605C14.134,25.787,13.324,24.967,12.539,24.17z
			 M20.573,22.786c0.37,0.349,0.689,0.649,0.98,0.923c-2.202,2.202-4.389,4.389-6.544,6.545c-1.118-1.114-2.266-2.258-3.409-3.399
			c0.283-0.275,0.604-0.586,0.955-0.927c0.781,0.799,1.587,1.624,2.415,2.471C16.872,26.492,18.727,24.635,20.573,22.786z
			 M13.847,34.933c-4.119-0.559-6.996-4.592-6.253-8.772c0.838-4.721,5.75-7.427,10.299-5.632c0.149-0.354,0.298-0.709,0.456-1.087
			c-3.411-1.451-7.543-0.569-10.138,2.623c-2.526,3.107-2.603,7.442-0.189,10.631c2.462,3.253,6.656,4.415,10.323,2.85
			c3.847-1.641,5.503-5.447,5.354-8.008c-0.394,0-0.788,0-1.179,0C22.422,32.375,18.371,35.547,13.847,34.933z M8.743,13.724
			c0-0.146,0-0.273,0-0.4c0.001-0.963-0.011-1.927,0.004-2.89c0.037-2.441,1.672-4.546,4.02-5.222
			c1.074-0.309,2.17-0.246,3.258-0.202c2.626,0.107,4.853,2.142,5.148,4.748c0.124,1.094,0.062,2.208,0.083,3.313
			c0.004,0.216,0.001,0.432,0.001,0.66c0.429,0,0.803,0,1.237,0c0-1.009,0.001-1.982,0-2.956c-0.004-2.915-1.754-5.472-4.46-6.557
			c-1.156-0.463-2.358-0.472-3.571-0.464C11.525,3.772,8.85,5.641,7.911,8.428C7.674,9.131,7.57,9.897,7.523,10.641
			c-0.064,1.02-0.016,2.047-0.016,3.082C7.937,13.724,8.321,13.724,8.743,13.724z"/>
	</g>
</g>
</svg>
