<?xml version="1.0" encoding="utf-8"?>
<!-- Generator: Adobe Illustrator 19.0.1, SVG Export Plug-In . SVG Version: 6.00 Build 0)  -->
<svg version="1.1" id="Слой_1" xmlns="http://www.w3.org/2000/svg" xmlns:xlink="http://www.w3.org/1999/xlink" x="0px" y="0px"
	 width="42px" height="42px" viewBox="0 0 42 42" style="enable-background:new 0 0 42 42;" xml:space="preserve">
<g>
	<g>
		<linearGradient id="SVGID_1_" gradientUnits="userSpaceOnUse" x1="21" y1="41.9999" x2="21" y2="1.292590e-004">
			<stop  offset="0" style="stop-color:#704FFD"/>
			<stop  offset="0.1428" style="stop-color:#695CFC"/>
			<stop  offset="0.4168" style="stop-color:#5E6FFA"/>
			<stop  offset="0.6992" style="stop-color:#577AF8"/>
			<stop  offset="1" style="stop-color:#557EF8"/>
		</linearGradient>
		<path style="fill:url(#SVGID_1_);" d="M38.167,19.781c0.343-0.022,0.744-0.048,1.14-0.074c0.116-1.297-0.676-4.469-1.62-6.431
			c-2.064-4.29-5.303-7.371-9.765-9.334c3.153,0.01,6.177,0.019,9.305,0.029c-0.512,0.502-0.96,0.937-1.402,1.379
			c-0.354,0.354-0.394,0.719-0.122,1.01c0.285,0.306,0.668,0.278,1.04-0.088c0.83-0.816,1.658-1.634,2.484-2.455
			c0.342-0.34,0.342-0.696-0.001-1.039c-0.926-0.927-1.856-1.851-2.785-2.775C36.276,0.001,36.111,0.001,35.947,0
			c-0.547,0.508-0.551,0.778-0.018,1.317c0.202,0.204,0.407,0.406,0.608,0.613c0.21,0.216,0.417,0.435,0.695,0.726
			c-5.017-0.016-9.915-0.031-14.837-0.047c-0.001,0.459-0.003,0.887-0.004,1.236C31.575,5.308,36.798,10.588,38.167,19.781z
			 M2.641,2.539C2.626,7.445,2.611,14.681,2.595,19.601c0.469,0.001,0.888,0.003,1.249,0.004C5.296,10.452,10.562,5.22,19.752,3.833
			c-0.021-0.34-0.045-0.741-0.075-1.235C12.27,3.468,7.105,7.302,3.948,13.973c0.01-3.057,0.019-8.412,0.029-11.555
			c0.53,0.55,0.974,1.033,1.443,1.491c0.372,0.363,0.854,0.297,1.069-0.119C6.664,3.451,6.53,3.185,6.29,2.942
			C5.481,2.123,4.674,1.303,3.864,0.486C3.496,0.115,3.132,0.108,2.756,0.48C1.834,1.393,0.919,2.313,0.002,3.23
			C0.001,3.395,0.001,3.559,0,3.724c0.509,0.543,0.788,0.551,1.318,0.013C1.726,3.321,2.119,2.89,2.52,2.466
			C2.56,2.49,2.601,2.515,2.641,2.539z M40.683,38.252c-0.224,0.222-0.445,0.446-0.671,0.666c-0.196,0.191-0.396,0.379-0.668,0.639
			c0.016-5.018,0.031-12.24,0.047-17.153c-0.46-0.001-0.888-0.003-1.239-0.004c-1.456,9.146-6.712,14.366-15.859,15.76
			c0.027,0.347,0.058,0.75,0.095,1.238C29.757,38.51,34.904,34.67,38.061,28c-0.01,3.074-0.019,8.423-0.029,11.57
			c-0.516-0.53-0.956-0.992-1.405-1.443c-0.344-0.345-0.73-0.368-1.01-0.079c-0.27,0.279-0.249,0.652,0.076,0.982
			c0.817,0.83,1.636,1.657,2.462,2.477c0.388,0.386,0.707,0.383,1.1-0.004c0.752-0.739,1.5-1.483,2.243-2.231
			c0.181-0.183,0.335-0.393,0.502-0.591L42,38.27C41.487,37.723,41.22,37.719,40.683,38.252z M3.836,22.266
			c-0.359,0.032-0.761,0.068-1.186,0.107c0.19,2.547,0.869,4.911,2.045,7.125c2.07,3.895,5.147,6.72,9.278,8.558
			c-3.115-0.01-6.11-0.019-9.21-0.029c0.516-0.504,0.967-0.938,1.41-1.38c0.358-0.357,0.396-0.716,0.122-1.01
			c-0.284-0.304-0.671-0.274-1.04,0.089c-0.83,0.816-1.658,1.635-2.484,2.456c-0.339,0.337-0.337,0.699,0.004,1.04
			c0.927,0.927,1.857,1.851,2.785,2.776c0.137,0,0.274,0.001,0.411,0.001c0.61-0.391,0.649-0.76,0.136-1.281
			c-0.115-0.117-0.232-0.233-0.347-0.35c-0.308-0.314-0.615-0.628-1-1.021c5.025,0.016,9.923,0.031,14.859,0.047
			c0.001-0.235,0.001-0.437,0.002-0.639c0.001-0.213,0.001-0.426,0.002-0.55C10.421,36.74,5.218,31.434,3.836,22.266z
			 M36.777,21.052c0.041-8.589-7.104-15.792-15.704-15.831C12.45,5.183,5.266,12.31,5.221,20.947
			c-0.044,8.569,7.087,15.776,15.663,15.83C29.531,36.831,36.736,29.702,36.777,21.052z M21.016,35.477
			c-8.104,0.009-14.479-6.375-14.492-14.512C6.51,12.959,12.908,6.543,20.921,6.524c8.13-0.02,14.537,6.34,14.556,14.448
			C35.495,29.053,29.1,35.468,21.016,35.477z M27.868,23.699c-1.326-0.737-2.638-1.5-3.98-2.269
			c0.987-1.745,1.188-2.698,0.972-4.515c-0.197-1.653-1.115-2.724-2.671-3.021c-0.558-0.106-1.147-0.133-1.715-0.095
			c-1.5,0.101-2.657,0.737-3.14,2.262c-0.268,0.845-0.329,1.718-0.237,2.599c0.103,0.995,0.445,1.906,1.027,2.757
			c-0.161,0.094-0.288,0.17-0.416,0.244c-1.212,0.692-2.421,1.389-3.639,2.072c-0.215,0.121-0.316,0.249-0.303,0.508
			c0.024,0.464-0.006,0.932,0.009,1.397c0.028,0.814,0.326,1.518,0.908,2.094c0.335,0.332,0.733,0.501,1.217,0.5
			c3.397-0.006,6.794-0.007,10.191,0c0.5,0.001,0.955-0.143,1.236-0.531c0.329-0.456,0.663-0.959,0.797-1.491
			c0.151-0.596,0.065-1.249,0.112-1.876C28.259,24.017,28.145,23.853,27.868,23.699z M18.594,16.217
			c0.14-0.51,0.525-0.829,1.029-0.972c0.873-0.246,1.756-0.24,2.636-0.034c0.798,0.187,1.173,0.754,1.289,1.519
			c0.059,0.391,0.078,0.788,0.115,1.182c-0.013,0.833-0.124,1.642-0.519,2.385c-0.45,0.849-1.134,1.356-2.125,1.364
			c-0.991,0.008-1.708-0.474-2.141-1.332C18.212,19.008,18.21,17.616,18.594,16.217z M26.817,26.336
			c-0.066,0.399-0.338,0.605-0.796,0.599c-1.684-0.021-3.368-0.008-5.051-0.008c-1.656-0.001-3.313,0-4.969-0.001
			c-0.52,0-0.746-0.139-0.833-0.647c-0.082-0.481-0.077-0.978-0.083-1.469c-0.001-0.089,0.111-0.211,0.203-0.264
			c1.195-0.692,2.394-1.379,3.6-2.052c0.105-0.058,0.297-0.06,0.401-0.003c1.136,0.633,2.262,0.635,3.403,0.012
			c0.114-0.063,0.323-0.063,0.437,0c1.195,0.665,2.381,1.347,3.564,2.032c0.094,0.055,0.223,0.168,0.221,0.252
			C26.904,25.304,26.901,25.828,26.817,26.336z"/>
	</g>
</g>
</svg>
