<?xml version="1.0" encoding="utf-8"?>
<!-- Generator: Adobe Illustrator 19.0.1, SVG Export Plug-In . SVG Version: 6.00 Build 0)  -->
<svg version="1.1" id="Слой_1" xmlns="http://www.w3.org/2000/svg" xmlns:xlink="http://www.w3.org/1999/xlink" x="0px" y="0px"
	 width="42.667px" height="40px" viewBox="0 0 42.667 40" style="enable-background:new 0 0 42.667 40;" xml:space="preserve">
<g>
	<g>
		<linearGradient id="SVGID_1_" gradientUnits="userSpaceOnUse" x1="0" y1="20" x2="42.6667" y2="20">
			<stop  offset="0" style="stop-color:#704FFD"/>
			<stop  offset="0.1428" style="stop-color:#695CFC"/>
			<stop  offset="0.4168" style="stop-color:#5E6FFA"/>
			<stop  offset="0.6992" style="stop-color:#577AF8"/>
			<stop  offset="1" style="stop-color:#557EF8"/>
		</linearGradient>
		<path style="fill:url(#SVGID_1_);" d="M16.667,40H18v-1.301h-1.333V40z M19.376,37.297h1.258v-1.273h-1.258V37.297z
			 M11.366,30.703v1.273h1.26v-1.273H11.366z M14.031,37.292h1.265v-1.273h-1.265V37.292z M15.299,30.698h-1.272v1.274h1.272V30.698
			z M19.333,40h1.333v-1.301h-1.333V40z M19.373,34.63h1.261v-1.274h-1.261V34.63z M11.354,34.635h1.284v-1.262h-1.284V34.635z
			 M16.704,37.299h1.274v-1.258h-1.274V37.299z M17.981,33.363h-1.274v1.267h1.274V33.363z M16.699,31.976h1.259v-1.274h-1.259
			V31.976z M14.033,34.637h1.274V33.37h-1.274V34.637z M0.701,31.97h1.259v-1.281H0.701V31.97z M1.301,10H0v1.333h1.301V10z M40,0
			h-1.333v1.301H40V0z M3.96,10.022h-1.26v1.282h1.26V10.022z M3.367,31.97h1.259v-1.281H3.367V31.97z M6.023,31.966h1.28v-1.259
			h-1.28V31.966z M8.704,31.981H9.97v-1.274H8.704V31.981z M8.707,34.63h1.26v-1.273h-1.26V34.63z M6.019,34.636h1.273v-1.266H6.019
			V34.636z M11.372,37.299h1.264v-1.271h-1.264V37.299z M35.367,34.636h1.273v-1.266h-1.273V34.636z M19.36,31.963h1.274v-1.267
			H19.36V31.963z M30.022,31.966h1.281v-1.259h-1.281V31.966z M30.019,33.371v1.266h1.273v-1.266H30.019z M30.019,37.303h1.273
			v-1.266h-1.273V37.303z M32.701,30.689v1.281h1.258v-1.281H32.701z M38.028,31.964h1.273v-1.269h-1.273V31.964z M34.331,18.331
			c-1.278-2.644-2.461-5.334-3.671-8.01c-1-2.212-1.969-4.443-3.386-6.428c-0.641-0.897-1.401-1.708-2.094-2.542h12.153V0H20.917
			c-0.521,0.13-1.06,0.211-1.56,0.398c-1.583,0.591-2.703,1.759-3.679,3.081c-1.393,1.886-2.391,3.992-3.339,6.122
			c-0.139,0.312-0.3,0.417-0.642,0.414c-2.095-0.018-4.191-0.009-6.321-0.009v1.309h6.112c0.008,0.072,0.027,0.116,0.014,0.146
			c-1.281,2.964-2.503,5.957-4.208,8.716c-0.895,1.448-1.919,2.792-3.307,3.813C2.802,24.861,1.485,25.347,0,25.333v1.333
			c0.425-0.031,0.85-0.062,1.308-0.095V28H0v1.333c0.111-0.002,0.222-0.007,0.333-0.007c8.589,0,17.178-0.001,25.767,0
			c5.522,0.001,11.045,0.005,16.567,0.007V28h-1.309v-1.423c0.441,0.03,0.875,0.06,1.309,0.09v-1.333
			c-1.882,0.013-3.44-0.753-4.788-2.006C36.351,21.909,35.227,20.185,34.331,18.331z M3.993,27.978H2.661
			c0-0.549-0.003-1.099,0.004-1.648c0.001-0.058,0.039-0.145,0.086-0.168c0.405-0.197,0.815-0.382,1.243-0.58V27.978z M6.658,27.979
			H5.326c0-0.676,0.049-1.354-0.012-2.021c-0.083-0.905,0.061-1.675,0.877-2.211c0.157-0.103,0.268-0.276,0.466-0.488V27.979z
			 M9.306,27.991H7.992c0-0.155,0-0.302,0-0.448c0-1.914-0.004-3.828,0.009-5.743c0.001-0.193,0.069-0.407,0.166-0.576
			c0.352-0.61,0.731-1.205,1.138-1.87V27.991z M11.993,27.977h-1.309c-0.008-0.118-0.022-0.237-0.022-0.357
			c-0.002-3.566-0.002-7.132-0.001-10.698c0-0.123-0.009-0.26,0.039-0.367c0.402-0.909,0.816-1.814,1.226-2.719
			c0.022,0.004,0.045,0.008,0.067,0.013V27.977z M20.655,27.979h-7.309c-0.007-0.133-0.019-0.267-0.019-0.401
			c-0.001-5.567-0.001-11.135,0.002-16.702c0-0.148,0.013-0.31,0.072-0.442c0.863-1.955,1.754-3.896,2.943-5.681
			c0.65-0.976,1.386-1.877,2.357-2.558c0.583-0.408,1.212-0.708,1.955-0.798V27.979z M29.315,27.977h-7.292V1.297
			c0.579,0.247,1.13,0.424,1.623,0.704c1.01,0.572,1.753,1.441,2.414,2.377c1.336,1.892,2.289,3.988,3.22,6.095
			c0.043,0.097,0.057,0.214,0.057,0.321c0.003,5.678,0.002,11.356,0.001,17.033C29.338,27.867,29.326,27.907,29.315,27.977z
			 M32.008,27.582v0.409h-1.322V13.85c0.018-0.009,0.037-0.018,0.055-0.026c0.208,0.471,0.379,0.963,0.632,1.408
			c0.532,0.935,0.664,1.92,0.649,2.987C31.977,21.339,32.007,24.461,32.008,27.582z M34.644,27.98h-1.292v-8.629
			c0.444,0.719,0.846,1.364,1.239,2.015c0.053,0.089,0.079,0.207,0.079,0.312c0.004,2.052,0.002,4.104,0,6.157
			C34.671,27.875,34.657,27.914,34.644,27.98z M36.011,27.979V23.2c0.478,0.501,0.877,0.916,1.269,1.336
			c0.04,0.043,0.063,0.118,0.063,0.178c0.004,1.079,0.003,2.158,0.003,3.265H36.011z M38.687,25.59
			c0.405,0.187,0.805,0.363,1.195,0.559c0.064,0.032,0.118,0.149,0.12,0.228c0.01,0.525,0.005,1.049,0.005,1.614h-1.32V25.59z
			 M35.371,30.708v1.273h1.266v-1.273H35.371z M41.333,0v1.333h1.333V0H41.333z M40.7,31.971h1.274v-1.267H40.7V31.971z
			 M27.363,37.307h1.268v-1.274h-1.268V37.307z M32.693,34.63h1.274v-1.268h-1.274V34.63z M22.023,37.294h1.274v-1.261h-1.274
			V37.294z M23.299,34.628v-1.273h-1.257v1.273H23.299z M22,40h1.333v-1.301H22V40z M24.667,40H26v-1.301h-1.333V40z M23.304,30.693
			h-1.267v1.274h1.267V30.693z M24.704,30.693v1.273h1.266v-1.273H24.704z M28.628,30.702h-1.274v1.27h1.274V30.702z M24.688,34.634
			h1.283v-1.26h-1.283V34.634z M25.965,37.305v-1.274h-1.271v1.274H25.965z M28.625,34.643v-1.274h-1.259v1.274H28.625z"/>
	</g>
</g>
</svg>
