<?xml version="1.0" encoding="utf-8"?>
<!-- Generator: Adobe Illustrator 19.0.1, SVG Export Plug-In . SVG Version: 6.00 Build 0)  -->
<svg version="1.1" id="Слой_1" xmlns="http://www.w3.org/2000/svg" xmlns:xlink="http://www.w3.org/1999/xlink" x="0px" y="0px"
	 width="40px" height="40px" viewBox="0 0 40 40" style="enable-background:new 0 0 40 40;" xml:space="preserve">
<g>
	<g>
		<linearGradient id="SVGID_1_" gradientUnits="userSpaceOnUse" x1="0" y1="20" x2="40" y2="20">
			<stop  offset="0" style="stop-color:#704FFD"/>
			<stop  offset="0.1428" style="stop-color:#695CFC"/>
			<stop  offset="0.4168" style="stop-color:#5E6FFA"/>
			<stop  offset="0.6992" style="stop-color:#577AF8"/>
			<stop  offset="1" style="stop-color:#557EF8"/>
		</linearGradient>
		<path style="fill:url(#SVGID_1_);" d="M12.525,33.716h1.195v-4.938h-1.195V33.716z M13.725,25.035h-1.193v2.436h1.193V25.035z
			 M12.539,36.215h1.193v-1.187h-1.193V36.215z M10.034,23.72h1.195v-1.182h-1.195V23.72z M10.038,29.965h1.181v-3.694h-1.181
			V29.965z M17.531,34.972h1.195v-2.438h-1.195V34.972z M17.524,31.216h1.194v-1.188h-1.194V31.216z M15.026,33.724h1.19V32.53
			h-1.19V33.724z M18.721,27.525h-1.186v1.193h1.186V27.525z M16.217,22.53h-1.195v2.43h1.195V22.53z M15.035,29.982h1.187v-3.694
			h-1.187V29.982z M10.028,34.961h1.186v-3.692h-1.186V34.961z M1.255,1.241H6.25V0H0v6.25h1.255V1.241z M3.729,3.717V2.539H2.536
			v1.178H3.729z M1.241,33.75H0V40h6.25v-1.255H1.241V33.75z M10.877,8.957c-2.522,2.801-3.572,6.06-3.348,9.775h1.237
			c-0.234-3.413,0.677-6.414,3.016-8.931C11.47,9.509,11.187,9.246,10.877,8.957z M2.533,36.287v1.195h1.191v-1.195H2.533z
			 M6.854,13.282c1.983-5.248,5.58-8.577,11.164-9.369c5.562-0.789,9.993,1.311,13.357,5.78c0.325-0.223,0.644-0.442,0.962-0.66
			c-2.9-4.412-9.086-7.698-15.714-6.129c-3.202,0.758-5.872,2.415-8.022,4.898c-1.304,1.506-2.273,3.205-2.875,5.132
			C6.144,13.063,6.51,13.176,6.854,13.282z M5.031,33.722h1.194v-1.188H5.031V33.722z M7.536,31.231h1.185v-1.206H7.536V31.231z
			 M7.531,28.729h1.181v-3.694H7.531V28.729z M5.031,23.785v2.444h1.182v-2.444H5.031z M5.019,31.224h1.195v-3.691H5.019V31.224z
			 M7.532,36.23h1.192v-3.694H7.532V36.23z M31.277,36.213h1.19v-2.444h-1.19V36.213z M31.281,28.785v3.695h1.181v-3.695H31.281z
			 M34.964,30.019h-1.185v1.205h1.185V30.019z M34.965,26.268h-1.186v2.442h1.186V26.268z M36.272,36.28v1.18h1.194v-1.18H36.272z
			 M38.745,38.759H33.75V40H40v-6.25h-1.255V38.759z M31.271,27.468h1.201v-4.93h-1.201V27.468z M34.962,34.978v-1.194h-1.181v1.194
			H34.962z M33.75,0v1.255h5.009V6.25H40V0H33.75z M36.288,2.528v1.188h1.195V2.528H36.288z M33.783,11.645
			c-0.378,0.164-0.741,0.322-1.1,0.478c0.926,2.633,1.376,6.115,1.024,7.858h-1.213c0-0.805,0-1.584,0-2.363
			c0-1.767-0.339-3.463-1.059-5.078c-2.257-5.069-7.383-8.033-12.916-7.439c-0.818,0.088-1.621,0.314-2.473,0.484
			c0.154,0.461,0.276,0.827,0.402,1.206c0.098-0.024,0.173-0.039,0.245-0.061c1.489-0.449,3.01-0.618,4.553-0.413
			c4.596,0.611,7.736,3.085,9.381,7.423c0.581,1.534,0.672,3.145,0.631,4.768c-0.012,0.49-0.002,0.98-0.002,1.472h-6.264
			c0-0.805,0.005-1.584-0.001-2.363c-0.016-1.883-0.858-3.317-2.41-4.341c-0.762-0.503-1.611-0.758-2.549-0.764v1.217
			c0.117,0.008,0.208,0.013,0.298,0.021c1.923,0.158,3.358,1.625,3.418,3.524c0.027,0.845,0.007,1.692,0.005,2.538
			c0,0.06-0.027,0.119-0.037,0.161h-4.961c-0.006-0.084-0.013-0.136-0.013-0.188c-0.001-0.768-0.009-1.536,0.001-2.304
			c0.011-0.795,0.493-1.249,1.289-1.239c0.757,0.01,1.212,0.48,1.221,1.268c0.005,0.399,0.001,0.799,0.001,1.213h1.236
			c0-0.38,0.001-0.741,0-1.102c-0.006-1.419-1.167-2.627-2.513-2.616c-1.328,0.011-2.468,1.216-2.472,2.616
			c-0.002,0.677,0.001,1.354-0.001,2.031c0,0.112-0.016,0.223-0.024,0.321H16.25c0-0.956-0.028-1.881,0.008-2.803
			c0.034-0.887,0.43-1.643,0.984-2.241c-0.282-0.319-0.538-0.607-0.812-0.916c-0.648,0.678-1.111,1.428-1.252,2.298
			c-0.138,0.854-0.126,1.732-0.168,2.6c-0.017,0.358-0.003,0.717-0.003,1.062h-3.761c0-0.943-0.013-1.854,0.002-2.764
			c0.065-3.961,2.862-7.388,6.735-8.234c0.653-0.143,1.326-0.199,1.985-0.294V7.516c-0.168,0-0.31-0.006-0.451,0.001
			c-4.285,0.201-8.154,3.388-9.203,7.553c-0.339,1.345-0.31,2.708-0.307,4.074c0.001,0.281,0,0.561,0,0.832H6.23v-2.451H5V20H0v1.25
			h5.013v1.214h1.243v-1.197h1.263v2.45h1.242v-2.454h3.749v2.459h1.242v-2.45h3.762v4.94h1.242v-4.945h5.013v1.199H25v-1.203h1.264
			v3.707h1.242v-3.697h6.263v3.701H35V21.25h5V20h-5.027C35.077,17.12,35.007,14.307,33.783,11.645z M30.003,17.463
			c-0.1-2.94-1.19-5.39-3.331-7.409c-0.285,0.317-0.544,0.605-0.826,0.918c1.918,1.771,2.874,3.93,2.922,6.491H30.003z
			 M23.502,10.928c-2.729-1.446-5.416-1.244-7.896,0.576c-2.418,1.775-3.325,4.261-3.069,7.225h1.193
			c0.005-0.116,0.008-0.205,0.013-0.293c0.04-0.739-0.007-1.496,0.137-2.214c0.637-3.178,3.366-5.198,6.631-4.967
			c2.941,0.208,5.307,2.413,5.669,5.321c0.088,0.704,0.076,1.42,0.11,2.136h1.184C27.812,14.574,25.721,12.103,23.502,10.928z
			 M22.462,29.973v-1.202h-1.181v1.202H22.462z M24.966,23.781h-1.195v4.932h1.195V23.781z M21.286,33.717h1.185v-2.442h-1.185
			V33.717z M22.467,22.519h-1.191v4.944h1.191V22.519z M24.967,30.029h-1.192v1.185h1.192V30.029z M21.278,36.226h1.188v-1.195
			h-1.188V36.226z M26.276,33.713h1.191v-1.195h-1.191V33.713z M26.285,27.482h1.187v-1.194h-1.187V27.482z M23.785,36.218h1.188
			v-3.694h-1.188V36.218z M28.787,33.715h1.182v-3.694h-1.182V33.715z M28.787,27.465h1.182v-4.944h-1.182V27.465z M26.289,31.215
			h1.18v-2.444h-1.18V31.215z"/>
	</g>
</g>
</svg>
