<?xml version="1.0" encoding="utf-8"?>
<!-- Generator: Adobe Illustrator 19.0.1, SVG Export Plug-In . SVG Version: 6.00 Build 0)  -->
<svg version="1.1" id="Слой_1" xmlns="http://www.w3.org/2000/svg" xmlns:xlink="http://www.w3.org/1999/xlink" x="0px" y="0px"
	 width="37.5px" height="40px" viewBox="0 0 37.5 40" style="enable-background:new 0 0 37.5 40;" xml:space="preserve">
<g>
	<g>
		<linearGradient id="SVGID_1_" gradientUnits="userSpaceOnUse" x1="0" y1="20" x2="37.4997" y2="20">
			<stop  offset="0" style="stop-color:#704FFD"/>
			<stop  offset="0.1428" style="stop-color:#695CFC"/>
			<stop  offset="0.4168" style="stop-color:#5E6FFA"/>
			<stop  offset="0.6992" style="stop-color:#577AF8"/>
			<stop  offset="1" style="stop-color:#557EF8"/>
		</linearGradient>
		<path style="fill:url(#SVGID_1_);" d="M10.65,19.34h1.193v-1.186H10.65V19.34z M16.842,18.154h-1.192v1.185h1.192V18.154z
			 M37.5,7.5V2.891c-0.237-0.324-0.56-0.397-0.948-0.392c-1.327,0.018-2.655,0.007-4.014,0.007v1.231h2.666
			c-1.243,1.242-2.495,2.493-3.762,3.759c-1.524-1.417-3.311-2.615-5.317-3.47c-0.702-0.299-1.429-0.541-2.183-0.823
			c-0.126,0.431-0.235,0.801-0.323,1.101c1.267,0.571,2.526,1.087,3.737,1.7c1.221,0.618,2.307,1.45,3.327,2.409
			c-0.329,0.304-0.64,0.591-0.931,0.859c-0.81-0.589-1.612-1.232-2.472-1.786c-1.94-1.25-4.071-2.014-6.36-2.32
			c-0.228-0.03-0.329-0.099-0.305-0.334c0.015-0.138,0.003-0.28,0.003-0.465c0.409,0,0.783,0.004,1.157-0.001
			c0.487-0.007,0.714-0.233,0.717-0.723c0.005-0.963-0.01-1.927,0.009-2.89C22.507,0.412,22.33,0.204,22.109,0h-6.719
			C15.065,0.236,14.99,0.558,15,0.948c0.022,0.885,0.005,1.77,0.007,2.656c0.001,0.534,0.223,0.758,0.757,0.765
			c0.361,0.004,0.722,0.001,1.118,0.001c0,0.18-0.011,0.321,0.003,0.46c0.023,0.233-0.076,0.306-0.304,0.337
			C9.563,6.123,3.89,11.647,2.73,18.643c-1.325,7.993,3.655,15.866,11.443,18.176c9.145,2.712,18.566-3.114,20.469-12.323
			c1.071-5.183-0.259-9.817-3.663-13.859c-0.084-0.099-0.172-0.196-0.256-0.294c-0.017-0.019-0.028-0.044-0.126-0.152
			c0.319-0.293,0.638-0.587,0.957-0.881c4.476,4.583,6.318,12.425,3.054,19.419c-3.294,7.057-10.559,10.735-17.85,9.92
			C8.755,37.754,2.563,31.677,1.432,23.843C0.809,19.525,1.63,15.469,3.994,11.78c2.364-3.689,5.714-6.094,9.911-7.372
			c-0.113-0.392-0.22-0.763-0.334-1.162C12.194,3.621,10.9,4.131,9.713,4.858C8.529,5.582,7.4,6.395,6.22,7.187
			C5.972,6.92,5.657,6.58,5.302,6.198C5.49,6.01,5.716,5.784,5.94,5.556c0.405-0.413,0.41-0.697,0.011-1.101
			C5.401,3.9,4.849,3.347,4.294,2.798c-0.406-0.402-0.689-0.399-1.1,0.009C2.437,3.56,1.682,4.315,0.93,5.072
			C0.523,5.481,0.523,5.764,0.925,6.172C1.472,6.73,2.022,7.284,2.572,7.838C2.94,8.209,3.278,8.216,3.651,7.841
			C3.879,7.612,4.084,7.36,4.288,7.129c0.385,0.39,0.709,0.718,1.003,1.016c-0.688,0.888-1.446,1.767-2.093,2.72
			c-1.84,2.714-2.887,5.717-3.129,8.994C0.06,19.985,0.024,20.109,0,20.234v2.109c0.074,0.551,0.136,1.103,0.223,1.651
			c0.776,4.877,3.117,8.85,6.959,11.932c2.839,2.278,6.096,3.573,9.711,3.975c0.255,0.028,0.509,0.065,0.763,0.098h2.188
			c0.55-0.074,1.101-0.143,1.651-0.223c7.876-1.152,14.327-7.431,15.696-15.283c0.124-0.713,0.208-1.433,0.31-2.149v-2.109
			c-0.098-0.731-0.172-1.466-0.3-2.191c-0.633-3.6-2.216-6.734-4.662-9.44c-0.035-0.038-0.065-0.08-0.066-0.08
			c1.26-1.262,2.512-2.515,3.768-3.773V7.5H37.5z M16.269,3.131V1.269h4.973v1.863c-0.379,0-0.75-0.004-1.121,0.001
			c-0.512,0.007-0.731,0.226-0.738,0.739c-0.005,0.362-0.001,0.724-0.001,1.113h-1.263c0-0.367,0.003-0.739-0.001-1.111
			c-0.004-0.506-0.231-0.735-0.737-0.743C17.019,3.127,16.657,3.131,16.269,3.131z M29.929,31.337
			c-5.425,6.117-15.389,6.594-21.376,0.987c-6.236-5.84-6.444-15.726-0.447-21.716c5.973-5.965,15.426-5.531,20.753-0.48
			c-0.601,0.597-1.203,1.196-1.831,1.82c-1.579-1.393-3.436-2.395-5.559-2.88c-1.082-0.247-2.178-0.348-3.332-0.3v11.843H7.481
			c0.494-4.958,3.065-8.276,7.67-10.071c-0.008-0.056-0.009-0.108-0.025-0.156c-0.102-0.307-0.208-0.613-0.334-0.984
			c-2.161,0.731-3.963,1.955-5.433,3.66c-2.166,2.513-3.188,5.438-3.098,8.806h0.476c3.776,0,7.551,0.004,11.327-0.007
			c0.315-0.001,0.528,0.096,0.745,0.315c1.806,1.821,3.623,3.632,5.437,5.445c0.091,0.091,0.187,0.178,0.309,0.294
			c0.291-0.295,0.554-0.563,0.823-0.835c-1.923-1.912-3.846-3.825-5.731-5.699c2.569-2.569,5.068-5.068,7.604-7.603
			c2.621,3.191,3.423,6.842,2.239,10.865c-1.247,4.235-5.047,7.401-9.308,7.769c-5.904,0.509-9.88-2.162-12.188-7.577
			c-0.331,0.112-0.694,0.235-1.051,0.357c0.576,3.466,5.012,7.393,9.345,8.302c4.997,1.049,10.168-1.198,13.025-5.656
			c2.708-4.225,2.791-10.298-1.324-14.954c0.296-0.297,0.6-0.593,0.894-0.899c0.297-0.308,0.585-0.625,0.878-0.938
			C34.498,15.888,35.556,24.992,29.929,31.337z M26.22,12.769c-2.293,2.293-4.566,4.567-6.829,6.831v-9.587
			C22.006,10.17,24.286,11.087,26.22,12.769z M3.112,6.517c-0.271-0.279-0.582-0.6-0.867-0.893c0.487-0.486,1.007-1.006,1.532-1.531
			C4.073,4.377,4.389,4.68,4.683,4.962C4.147,5.492,3.625,6.009,3.112,6.517z M13.147,19.336h1.195v-1.181h-1.195V19.336z"/>
	</g>
</g>
</svg>
