<?xml version="1.0" encoding="utf-8"?>
<!-- Generator: Adobe Illustrator 19.0.1, SVG Export Plug-In . SVG Version: 6.00 Build 0)  -->
<svg version="1.1" id="Слой_1" xmlns="http://www.w3.org/2000/svg" xmlns:xlink="http://www.w3.org/1999/xlink" x="0px" y="0px"
	 width="36px" height="36px" viewBox="0 0 36 36" style="enable-background:new 0 0 36 36;" xml:space="preserve">
<g>
	<g>
		<linearGradient id="SVGID_1_" gradientUnits="userSpaceOnUse" x1="0" y1="18" x2="36" y2="18">
			<stop  offset="0" style="stop-color:#704FFD"/>
			<stop  offset="0.1428" style="stop-color:#695CFC"/>
			<stop  offset="0.4168" style="stop-color:#5E6FFA"/>
			<stop  offset="0.6992" style="stop-color:#577AF8"/>
			<stop  offset="1" style="stop-color:#557EF8"/>
		</linearGradient>
		<path style="fill:url(#SVGID_1_);" d="M33.718,21.391H32.65v1.075h1.068V21.391z M31.442,18.016h-1.049
			c-0.077,3.415-1.259,6.343-3.659,8.739c-2.398,2.394-5.33,3.566-8.709,3.64v1.068C25.715,31.574,31.712,24.827,31.442,18.016z
			 M18.082,34.869c-1.025-0.004-2.065-0.084-3.07-0.275c-5.303-1.011-9.264-3.918-11.881-8.625c-1.38-2.481-2.012-5.175-2.013-8.015
			c0-0.722,0-1.445,0-2.204H0v3.234c0.078,0.624,0.134,1.252,0.237,1.872c0.575,3.468,2.017,6.533,4.376,9.141
			c2.907,3.214,6.512,5.16,10.808,5.8c0.53,0.079,1.063,0.136,1.595,0.203H36v-1.125c-0.07,0.002-0.14,0.006-0.211,0.006
			C29.887,34.881,23.985,34.894,18.082,34.869z M24.846,3.836C18.878,0.872,11.554,2.147,6.848,6.903
			C2.1,11.702,0.905,18.976,3.862,24.921c3.114,6.259,9.328,8.927,14.114,8.785v-0.984c-1.089-0.153-2.145-0.229-3.168-0.456
			C7.022,30.544,2.03,22.8,3.668,15.024C5.352,7.029,13.279,1.872,21.198,3.742c5.491,1.297,9.085,4.761,10.832,10.122
			c0.57,1.748,0.646,3.562,0.602,5.385c-0.008,0.323-0.001,0.647-0.001,0.975h1.081C34.3,12.983,31.069,6.926,24.846,3.836z
			 M33.73,23.654h-1.079v1.061h1.079V23.654z M1.098,13.5H0v1.125h1.098V13.5z M1.098,11.25H0v1.125h1.098V11.25z M24.727,33.724
			v-1.067h-1.073v1.067H24.727z M14.029,15.781h-1.064v1.075h1.064V15.781z M34.902,20.25H36v-1.125h-1.098V20.25z M15.178,6.785
			v4.483h-3.337v1.117h3.325v10.133h-2.193v1.117h2.234v1.085h1.106v-1.082h1.137v3.336h1.119v-3.356
			c0.615,0,1.188,0.023,1.76-0.004c1.633-0.078,2.84-0.853,3.504-2.344c0.659-1.481,0.426-2.89-0.612-4.133
			c-0.307-0.368-0.717-0.65-1.086-0.976c0.003-0.004,0.02-0.035,0.044-0.06c0.888-0.919,1.146-1.989,0.631-3.16
			c-0.514-1.171-1.481-1.701-2.753-1.685c-0.488,0.006-0.977,0.001-1.506,0.001v-1.105h-1.118v1.089h-1.136V6.785H15.178z
			 M23.06,19.968c-0.131,1.407-1.345,2.521-2.772,2.537c-0.561,0.006-1.122,0.001-1.708,0.001v-5.571
			c0.771,0,1.534-0.098,2.26,0.021C22.255,17.188,23.194,18.534,23.06,19.968z M18.568,12.431c0.718,0,1.438-0.088,2.125,0.023
			c0.831,0.133,1.342,0.983,1.242,1.82c-0.099,0.821-0.815,1.467-1.655,1.481c-0.559,0.009-1.119,0.002-1.712,0.002V12.431z
			 M17.425,22.489h-1.09v-5.602h1.09V22.489z M16.328,12.391h1.094v3.351h-1.094V12.391z M10.715,15.781v1.069h1.075v-1.069H10.715z
			 M35.866,15.943c-0.471-3.99-2.091-7.45-4.862-10.35c-2.86-2.993-6.355-4.794-10.459-5.395C20.026,0.122,19.505,0.066,18.984,0H0
			v1.125c0.047-0.002,0.094-0.006,0.14-0.006c5.972,0,11.945-0.003,17.917,0.001c1.84,0.001,3.646,0.265,5.372,0.907
			c6.259,2.332,10.017,6.79,11.237,13.361c0.157,0.845,0.181,1.714,0.267,2.584c-0.005-0.004,0.004,0.009,0.013,0.009
			C35.298,17.988,35.649,17.994,36,18v-0.984C35.955,16.658,35.908,16.301,35.866,15.943z M20.218,33.727v-1.073h-1.067v1.073
			H20.218z M22.469,33.716v-1.064h-1.075v1.064H22.469z M10.66,11.269H9.596v1.075h1.064V11.269z M6.773,18.032
			c-0.046,5.969,4.952,11.442,11.718,11.204c6.465-0.227,11.478-6.118,10.668-12.579c-0.825-6.575-6.648-10.076-11.142-9.852v1.036
			c5.474,0.014,9.992,4.435,10.106,9.883c0.109,5.215-3.513,9.505-8.692,10.301c-2.442,0.375-4.746-0.12-6.822-1.462
			c-3.089-1.997-4.622-4.898-4.767-8.531H6.773z"/>
	</g>
</g>
</svg>
