<?xml version="1.0" encoding="utf-8"?>
<!-- Generator: Adobe Illustrator 19.0.1, SVG Export Plug-In . SVG Version: 6.00 Build 0)  -->
<svg version="1.1" id="Слой_1" xmlns="http://www.w3.org/2000/svg" xmlns:xlink="http://www.w3.org/1999/xlink" x="0px" y="0px"
	 width="38.4px" height="36px" viewBox="0 0 38.4 36" style="enable-background:new 0 0 38.4 36;" xml:space="preserve">
<g>
	<g>
		<linearGradient id="SVGID_1_" gradientUnits="userSpaceOnUse" x1="0" y1="18" x2="38.4" y2="18">
			<stop  offset="0" style="stop-color:#704FFD"/>
			<stop  offset="0.1428" style="stop-color:#695CFC"/>
			<stop  offset="0.4168" style="stop-color:#5E6FFA"/>
			<stop  offset="0.6992" style="stop-color:#577AF8"/>
			<stop  offset="1" style="stop-color:#557EF8"/>
		</linearGradient>
		<path style="fill:url(#SVGID_1_);" d="M19.192,16.795c0.606-0.003,1.007,0.273,1.161,0.806c0.036,0.126,0.06,0.256,0.087,0.37
			h1.164c-0.107-1.019-0.61-1.733-1.505-2.147c-0.253-0.117-0.327-0.248-0.311-0.502c0.019-0.294,0.004-0.591,0.004-0.896h-1.186
			c0,0.352,0.018,0.688-0.01,1.019c-0.01,0.114-0.118,0.24-0.213,0.322c-0.382,0.33-0.856,0.586-1.151,0.977
			c-0.685,0.907-0.57,1.855,0.283,2.603c0.427,0.374,0.933,0.659,1.412,0.972c0.354,0.232,0.732,0.429,1.08,0.668
			c0.31,0.213,0.469,0.514,0.378,0.907c-0.093,0.405-0.309,0.701-0.718,0.84c-0.855,0.289-1.467-0.102-1.722-1.112h-1.11
			c-0.039,0.861,0.572,1.771,1.48,2.163c0.239,0.104,0.312,0.229,0.296,0.473c-0.02,0.305-0.005,0.612-0.005,0.908h1.186
			c0-0.349-0.022-0.674,0.011-0.994c0.013-0.124,0.127-0.259,0.23-0.349c0.372-0.324,0.833-0.573,1.124-0.954
			c0.698-0.917,0.584-1.875-0.287-2.632c-0.428-0.373-0.937-0.653-1.415-0.968c-0.384-0.253-0.789-0.478-1.16-0.748
			c-0.305-0.222-0.361-0.548-0.257-0.909C18.193,17.083,18.587,16.798,19.192,16.795z M15.579,20.363V19.23h-1.152v1.133H15.579z
			 M12.025,7.169h14.346V6.024H12.025V7.169z M23.98,20.363V19.23h-1.153v1.133H23.98z M9.607,26.367h1.186v-0.51
			c0-7.4-0.001-14.8,0.001-22.199c0-1.498,0.966-2.463,2.464-2.464c4.862-0.002,9.725-0.001,14.587,0
			c0.115,0,0.229,0.013,0.404,0.023c-0.568,0.736-0.651,1.522-0.65,2.355c0.012,7.137,0.006,14.275,0.006,21.412v1.378h1.188v-0.329
			c0-4.862,0-9.725,0-14.587c0-2.8-0.002-5.6,0.001-8.4c0.001-0.929,0.458-1.57,1.251-1.78c1.323-0.35,2.36,0.446,2.361,1.818
			c0.002,3.137-0.034,6.275,0.014,9.412c0.025,1.63-0.262,3.284,0.264,4.92h-2.646v1.177c1.557,0,3.081,0.001,4.606,0
			c1.463-0.001,2.549-1.092,2.549-2.562c0.001-4,0-8,0-12V3.627h-2.356v1.184h1.168c0,0.978,0,1.926,0,2.874
			c0,2.825,0.003,5.65,0,8.475c-0.001,0.818-0.46,1.264-1.257,1.247c-0.747-0.017-1.155-0.48-1.155-1.311
			c0-4.325,0.001-8.65-0.001-12.975c0-1.322-0.817-2.492-2.05-2.941C31.356,0.111,31.164,0.059,30.975,0H12.75
			c-0.031,0.019-0.061,0.048-0.095,0.057c-1.983,0.487-3.05,1.841-3.05,3.879c0,7.337,0.001,14.675,0.001,22.012V26.367z
			 M35.97,29.967V19.82h-1.134v10.147H35.97z M26.38,10.836H12.034v1.134H26.38V10.836z M3.595,29.377
			c0-5.637,0.015-11.273-0.013-16.91c-0.006-1.27,0.368-1.743,1.705-1.682c0.91,0.042,1.824,0.008,2.737,0.008h0.344V9.607
			c-1.162,0-2.298-0.002-3.434,0C3.508,9.61,2.408,10.7,2.408,12.117c-0.002,5.824-0.001,11.648-0.001,17.472v0.39h1.188V29.377z
			 M8.371,13.185v-1.16H4.834v16.746h28.741v-8.937h-1.182v7.751H6.011V13.185H8.371z M24.607,31.183
			c-1.022-0.011-1.843,0.147-2.458,1.009c-0.091,0.128-0.337,0.202-0.513,0.204c-1.312,0.017-2.628-0.052-3.934,0.031
			c-0.917,0.058-1.627-0.161-2.151-0.917c-0.185-0.266-0.437-0.31-0.745-0.31C9.87,31.207,4.935,31.202,0,31.2v2.1
			c0.271,0.25,0.552,0.491,0.811,0.754C1.446,34.697,2.071,35.351,2.7,36h33c0.391-0.412,0.774-0.833,1.176-1.234
			c0.499-0.497,1.015-0.978,1.524-1.466v-2.1C33.802,31.202,29.204,31.235,24.607,31.183z M37.019,32.933
			c-0.536,0.559-1.081,1.111-1.646,1.64c-0.136,0.127-0.362,0.224-0.546,0.225c-6.11,0.011-12.22,0.009-18.33,0.009
			c-4.286,0-8.571-0.003-12.857,0.006c-0.286,0.001-0.487-0.082-0.683-0.288c-0.508-0.534-1.045-1.04-1.554-1.573
			c-0.122-0.127-0.18-0.315-0.313-0.559h0.524c4.261,0,8.521,0.002,12.782-0.006c0.26,0,0.467,0.052,0.615,0.264
			c0.56,0.801,1.317,1.013,2.281,0.965c1.608-0.08,3.223-0.015,4.834-0.033c0.184-0.002,0.437-0.093,0.538-0.231
			c0.596-0.812,1.369-0.997,2.358-0.983c3.935,0.058,7.871,0.024,11.807,0.024h0.477C37.183,32.633,37.133,32.814,37.019,32.933z
			 M12.02,9.564h14.346V8.43H12.02V9.564z M21.026,3.63v1.134h1.154V3.63H21.026z M18.617,3.633v1.14h1.147v-1.14H18.617z
			 M16.234,3.625v1.144h1.138V3.625H16.234z"/>
	</g>
</g>
</svg>
